<svg viewBox="0 0 100 100" xmlns="http://www.w3.org/2000/svg" xmlns:bx="https://boxy-svg.com">
  <path d="M 30 10 L 70 10 C 81.046 10 90 18.954 90 30 L 90 70 C 90 81.046 81.046 90 70 90 L 30 90 C 18.954 90 10 81.046 10 70 L 10 30 C 10 18.954 18.954 10 30 10 Z M 26.161 21.161 C 24.036 23.286 22.609 26.728 22.5 30 L 22.5 70 C 22.609 73.272 24.036 76.714 26.161 78.839 C 28.286 80.964 31.728 82.391 35 82.5 L 65 82.5 C 68.272 82.391 71.714 80.964 73.839 78.839 C 75.964 76.714 77.391 73.272 77.5 70 L 77.5 30 C 77.391 26.728 75.964 23.286 73.839 21.161 C 71.714 19.036 68.272 17.609 65 17.5 L 35 17.5 C 31.728 17.609 28.286 19.036 26.161 21.161 Z M 35 22.5 L 65 22.5 C 67.251 22.391 68.809 23.202 70.303 24.697 C 71.798 26.191 72.609 27.749 72.5 30 L 72.5 70 C 72.609 72.251 71.798 73.809 70.303 75.303 C 68.809 76.798 67.251 77.609 65 77.5 L 35 77.5 C 32.749 77.609 31.191 76.798 29.697 75.303 C 28.202 73.809 27.391 72.251 27.5 70 L 27.5 30 C 27.391 27.749 28.202 26.191 29.697 24.697 C 31.191 23.202 32.749 22.391 35 22.5 Z M 34.99 29.99 C 33.589 31.39 32.609 33.832 32.5 36 L 32.5 54 C 32.609 56.168 33.589 58.61 34.99 60.01 C 36.39 61.411 38.832 62.391 41 62.5 L 59 62.5 C 61.168 62.391 63.61 61.411 65.01 60.01 C 66.411 58.61 67.391 56.168 67.5 54 L 67.5 35 C 67.391 33.109 66.523 30.917 65.303 29.697 C 64.083 28.477 61.892 27.609 60 27.5 L 41 27.5 C 38.832 27.609 36.39 28.589 34.99 29.99 Z M 41 32.5 L 60 32.5 C 60.87 32.391 61.178 32.642 61.768 33.232 C 62.358 33.822 62.609 34.13 62.5 35 L 62.5 54 C 62.609 55.146 62.246 55.704 61.475 56.475 C 60.704 57.246 60.146 57.609 59 57.5 L 41 57.5 C 39.854 57.609 39.296 57.246 38.525 56.475 C 37.754 55.704 37.391 55.146 37.5 54 L 37.5 36 C 37.391 34.854 37.754 34.296 38.525 33.525 C 39.296 32.754 39.854 32.391 41 32.5 Z" style="fill: rgb(255, 255, 255);"></path>
</svg>